JetBrainsMoro-ThinItalic.ufo
<glyph name="asterisk" format="2">
  <advance width="600"/>
  <unicode hex="002A"/>
  <outline>
    <contour>
      <point x="139" y="104" type="line"/>
      <point x="228" y="207" type="line" smooth="yes"/>
      <point x="273" y="260"/>
      <point x="283" y="287"/>
      <point x="299" y="310" type="curve"/>
      <point x="310" y="310" type="line"/>
      <point x="318" y="286"/>
      <point x="321" y="260"/>
      <point x="349" y="207" type="curve" smooth="yes"/>
      <point x="405" y="103" type="line"/>
      <point x="454" y="134" type="line"/>
      <point x="398" y="238" type="line" smooth="yes"/>
      <point x="370" y="289"/>
      <point x="349" y="305"/>
      <point x="334" y="323" type="curve"/>
      <point x="341" y="337" type="line"/>
      <point x="365" y="341"/>
      <point x="393" y="340"/>
      <point x="450" y="360" type="curve" smooth="yes"/>
      <point x="578" y="404" type="line"/>
      <point x="567" y="456" type="line"/>
      <point x="438" y="413" type="line" smooth="yes"/>
      <point x="383" y="395"/>
      <point x="359" y="377"/>
      <point x="337" y="364" type="curve"/>
      <point x="329" y="371" type="line"/>
      <point x="338" y="395"/>
      <point x="349" y="421"/>
      <point x="359" y="480" type="curve" smooth="yes"/>
      <point x="380" y="610" type="line"/>
      <point x="326" y="610" type="line"/>
      <point x="305" y="480" type="line" smooth="yes"/>
      <point x="295" y="421"/>
      <point x="301" y="395"/>
      <point x="301" y="371" type="curve"/>
      <point x="291" y="365" type="line"/>
      <point x="273" y="378"/>
      <point x="253" y="395"/>
      <point x="202" y="414" type="curve" smooth="yes"/>
      <point x="89" y="457" type="line"/>
      <point x="62" y="407" type="line"/>
      <point x="175" y="363" type="line" smooth="yes"/>
      <point x="226" y="343"/>
      <point x="254" y="342"/>
      <point x="277" y="339" type="curve"/>
      <point x="279" y="324" type="line"/>
      <point x="258" y="306"/>
      <point x="233" y="291"/>
      <point x="188" y="239" type="curve" smooth="yes"/>
      <point x="98" y="136" type="line"/>
    </contour>
  </outline>
</glyph>
<glyph name="period" format="2">
  <advance width="600"/>
  <unicode hex="002E"/>
  <outline>
    <contour>
      <point x="254" y="-10" type="curve" smooth="yes"/>
      <point x="299" y="-10"/>
      <point x="332" y="19"/>
      <point x="339" y="65" type="curve" smooth="yes"/>
      <point x="346" y="110"/>
      <point x="323" y="138"/>
      <point x="278" y="138" type="curve" smooth="yes"/>
      <point x="233" y="138"/>
      <point x="200" y="110"/>
      <point x="193" y="65" type="curve" smooth="yes"/>
      <point x="186" y="19"/>
      <point x="209" y="-10"/>
    </contour>
  </outline>
</glyph>
<glyph name="four" format="2">
  <advance width="600"/>
  <unicode hex="0034"/>
  <outline>
    <contour>
      <point x="376" y="0" type="line"/>
      <point x="426" y="0" type="line"/>
      <point x="493" y="420" type="line"/>
      <point x="443" y="420" type="line"/>
      <point x="410" y="215" type="line"/>
      <point x="125" y="215" type="line"/>
      <point x="132" y="255" type="line"/>
      <point x="499" y="729" type="line"/>
      <point x="443" y="729" type="line"/>
      <point x="84" y="270" type="line"/>
      <point x="68" y="170" type="line"/>
      <point x="403" y="170" type="line"/>
    </contour>
  </outline>
</glyph>
<glyph name="eight" format="2">
  <advance width="600"/>
  <unicode hex="0038"/>
  <outline>
    <contour>
      <point x="255" y="-10" type="curve" smooth="yes"/>
      <point x="384" y="-10"/>
      <point x="481" y="61"/>
      <point x="499" y="176" type="curve" smooth="yes"/>
      <point x="513" y="261"/>
      <point x="473" y="317"/>
      <point x="369" y="374" type="curve" smooth="yes"/>
      <point x="287" y="419" type="line" smooth="yes"/>
      <point x="219" y="456"/>
      <point x="189" y="501"/>
      <point x="199" y="563" type="curve" smooth="yes"/>
      <point x="212" y="644"/>
      <point x="280" y="695"/>
      <point x="367" y="695" type="curve" smooth="yes"/>
      <point x="457" y="695"/>
      <point x="515" y="641"/>
      <point x="503" y="563" type="curve" smooth="yes"/>
      <point x="493" y="504"/>
      <point x="449" y="458"/>
      <point x="361" y="418" type="curve" smooth="yes"/>
      <point x="263" y="374" type="line" smooth="yes"/>
      <point x="142" y="320"/>
      <point x="83" y="261"/>
      <point x="69" y="176" type="curve" smooth="yes"/>
      <point x="51" y="61"/>
      <point x="126" y="-10"/>
    </contour>
    <contour>
      <point x="262" y="35" type="curve" smooth="yes"/>
      <point x="164" y="35"/>
      <point x="106" y="89"/>
      <point x="119" y="174" type="curve" smooth="yes"/>
      <point x="130" y="244"/>
      <point x="186" y="300"/>
      <point x="275" y="340" type="curve" smooth="yes"/>
      <point x="372" y="383" type="line" smooth="yes"/>
      <point x="477" y="429"/>
      <point x="542" y="492"/>
      <point x="553" y="566" type="curve" smooth="yes"/>
      <point x="569" y="664"/>
      <point x="487" y="740"/>
      <point x="374" y="740" type="curve" smooth="yes"/>
      <point x="263" y="740"/>
      <point x="165" y="666"/>
      <point x="149" y="566" type="curve" smooth="yes"/>
      <point x="137" y="490"/>
      <point x="179" y="429"/>
      <point x="263" y="384" type="curve" smooth="yes"/>
      <point x="345" y="340" type="line" smooth="yes"/>
      <point x="422" y="299"/>
      <point x="460" y="242"/>
      <point x="449" y="173" type="curve" smooth="yes"/>
      <point x="436" y="88"/>
      <point x="360" y="35"/>
    </contour>
  </outline>
</glyph>
<glyph name="colon" format="2">
  <advance width="600"/>
  <unicode hex="003A"/>
  <outline>
    <contour>
      <point x="322" y="416" type="curve" smooth="yes"/>
      <point x="366" y="416"/>
      <point x="399" y="445"/>
      <point x="406" y="488" type="curve" smooth="yes"/>
      <point x="413" y="531"/>
      <point x="389" y="560"/>
      <point x="345" y="560" type="curve" smooth="yes"/>
      <point x="301" y="560"/>
      <point x="267" y="531"/>
      <point x="260" y="488" type="curve" smooth="yes"/>
      <point x="253" y="445"/>
      <point x="278" y="416"/>
    </contour>
    <contour>
      <point x="254" y="-10" type="curve" smooth="yes"/>
      <point x="298" y="-10"/>
      <point x="332" y="19"/>
      <point x="339" y="62" type="curve" smooth="yes"/>
      <point x="346" y="105"/>
      <point x="321" y="134"/>
      <point x="277" y="134" type="curve" smooth="yes"/>
      <point x="233" y="134"/>
      <point x="200" y="105"/>
      <point x="193" y="62" type="curve" smooth="yes"/>
      <point x="186" y="19"/>
      <point x="210" y="-10"/>
    </contour>
  </outline>
</glyph>
<glyph name="S" format="2">
  <advance width="600"/>
  <unicode hex="0053"/>
  <anchor x="256" y="0" name="bottom"/>
  <anchor x="372" y="730" name="top"/>
  <outline>
    <contour>
      <point x="259" y="-10" type="curve" smooth="yes"/>
      <point x="388" y="-10"/>
      <point x="481" y="64"/>
      <point x="500" y="180" type="curve" smooth="yes"/>
      <point x="515" y="273"/>
      <point x="465" y="355"/>
      <point x="371" y="384" type="curve" smooth="yes"/>
      <point x="290" y="409" type="line" smooth="yes"/>
      <point x="223" y="430"/>
      <point x="189" y="488"/>
      <point x="200" y="563" type="curve" smooth="yes"/>
      <point x="212" y="645"/>
      <point x="278" y="695"/>
      <point x="371" y="695" type="curve" smooth="yes"/>
      <point x="462" y="695"/>
      <point x="512" y="637"/>
      <point x="498" y="548" type="curve"/>
      <point x="548" y="548" type="line"/>
      <point x="566" y="666"/>
      <point x="501" y="740"/>
      <point x="379" y="740" type="curve" smooth="yes"/>
      <point x="256" y="740"/>
      <point x="167" y="670"/>
      <point x="150" y="559" type="curve" smooth="yes"/>
      <point x="135" y="466"/>
      <point x="180" y="392"/>
      <point x="271" y="364" type="curve" smooth="yes"/>
      <point x="352" y="339" type="line" smooth="yes"/>
      <point x="427" y="316"/>
      <point x="461" y="258"/>
      <point x="449" y="177" type="curve" smooth="yes"/>
      <point x="435" y="88"/>
      <point x="367" y="35"/>
      <point x="267" y="35" type="curve" smooth="yes"/>
      <point x="164" y="35"/>
      <point x="106" y="94"/>
      <point x="120" y="185" type="curve"/>
      <point x="70" y="185" type="line"/>
      <point x="51" y="66"/>
      <point x="124" y="-10"/>
    </contour>
  </outline>
</glyph>
<glyph name="asciitilde" format="2">
  <advance width="600"/>
  <unicode hex="007E"/>
  <outline>
    <contour>
      <point x="87" y="260" type="line"/>
      <point x="132" y="260" type="line"/>
      <point x="144" y="335" type="line" smooth="yes"/>
      <point x="151" y="378"/>
      <point x="177" y="403"/>
      <point x="215" y="403" type="curve" smooth="yes"/>
      <point x="300" y="403"/>
      <point x="287" y="260"/>
      <point x="407" y="260" type="curve" smooth="yes"/>
      <point x="470" y="260"/>
      <point x="514" y="301"/>
      <point x="525" y="370" type="curve" smooth="yes"/>
      <point x="536" y="445" type="line"/>
      <point x="491" y="445" type="line"/>
      <point x="480" y="370" type="line" smooth="yes"/>
      <point x="473" y="327"/>
      <point x="449" y="302"/>
      <point x="414" y="302" type="curve" smooth="yes"/>
      <point x="325" y="302"/>
      <point x="336" y="445"/>
      <point x="221" y="445" type="curve" smooth="yes"/>
      <point x="156" y="445"/>
      <point x="110" y="403"/>
      <point x="99" y="335" type="curve" smooth="yes"/>
    </contour>
  </outline>
</glyph>
<glyph name="divide" format="2">
  <advance width="600"/>
  <unicode hex="00F7"/>
  <outline>
    <contour>
      <point x="105" y="309" type="line"/>
      <point x="505" y="309" type="line"/>
      <point x="513" y="359" type="line"/>
      <point x="113" y="359" type="line"/>
    </contour>
    <contour>
      <point x="328" y="456" type="curve" smooth="yes"/>
      <point x="372" y="456"/>
      <point x="406" y="485"/>
      <point x="413" y="528" type="curve" smooth="yes"/>
      <point x="420" y="571"/>
      <point x="395" y="600"/>
      <point x="351" y="600" type="curve" smooth="yes"/>
      <point x="307" y="600"/>
      <point x="274" y="571"/>
      <point x="267" y="528" type="curve" smooth="yes"/>
      <point x="260" y="485"/>
      <point x="284" y="456"/>
    </contour>
    <contour>
      <point x="267" y="66" type="curve" smooth="yes"/>
      <point x="311" y="66"/>
      <point x="344" y="95"/>
      <point x="351" y="138" type="curve" smooth="yes"/>
      <point x="358" y="181"/>
      <point x="334" y="210"/>
      <point x="290" y="210" type="curve" smooth="yes"/>
      <point x="246" y="210"/>
      <point x="212" y="181"/>
      <point x="205" y="138" type="curve" smooth="yes"/>
      <point x="198" y="95"/>
      <point x="223" y="66"/>
    </contour>
  </outline>
</glyph>
<glyph name="eogonek" format="2">
  <advance width="600"/>
  <unicode hex="0119"/>
  <anchor x="343" y="550" name="top"/>
  <outline>
    <contour>
      <point x="301" y="-195" type="curve" smooth="yes"/>
      <point x="374" y="-195" type="line"/>
      <point x="381" y="-153" type="line"/>
      <point x="317" y="-153" type="line" smooth="yes"/>
      <point x="285" y="-153"/>
      <point x="269" y="-134"/>
      <point x="274" y="-103" type="curve" smooth="yes"/>
      <point x="278" y="-75"/>
      <point x="307" y="-36"/>
      <point x="351" y="0" type="curve" smooth="yes"/>
      <point x="382" y="24" type="line"/>
      <point x="423" y="50"/>
      <point x="453" y="88"/>
      <point x="471" y="135" type="curve"/>
      <point x="421" y="135" type="line"/>
      <point x="392" y="72"/>
      <point x="336" y="34"/>
      <point x="262" y="34" type="curve" smooth="yes"/>
      <point x="169" y="34"/>
      <point x="126" y="94"/>
      <point x="141" y="190" type="curve" smooth="yes"/>
      <point x="153" y="265" type="line"/>
      <point x="493" y="265" type="line"/>
      <point x="508" y="360" type="line" smooth="yes"/>
      <point x="527" y="481"/>
      <point x="467" y="560"/>
      <point x="346" y="560" type="curve" smooth="yes"/>
      <point x="224" y="560"/>
      <point x="137" y="481"/>
      <point x="118" y="360" type="curve" smooth="yes"/>
      <point x="91" y="190" type="line" smooth="yes"/>
      <point x="72" y="68"/>
      <point x="132" y="-10"/>
      <point x="255" y="-10" type="curve" smooth="yes"/>
      <point x="272" y="-10"/>
      <point x="290" y="-8"/>
      <point x="305" y="-5" type="curve"/>
      <point x="253" y="-48"/>
      <point x="230" y="-84"/>
      <point x="225" y="-115" type="curve" smooth="yes"/>
      <point x="217" y="-165"/>
      <point x="246" y="-195"/>
    </contour>
    <contour>
      <point x="446" y="286" type="line"/>
      <point x="472" y="308" type="line"/>
      <point x="160" y="308" type="line"/>
      <point x="168" y="360" type="line" smooth="yes"/>
      <point x="183" y="457"/>
      <point x="245" y="516"/>
      <point x="339" y="516" type="curve" smooth="yes"/>
      <point x="431" y="516"/>
      <point x="473" y="456"/>
      <point x="458" y="360" type="curve" smooth="yes"/>
    </contour>
  </outline>
</glyph>
<glyph name="iogonek" format="2">
  <advance width="600"/>
  <unicode hex="012F"/>
  <anchor x="271" y="0" name="bottom"/>
  <anchor x="290" y="0" name="ogonek"/>
  <anchor x="392" y="765" name="top"/>
  <outline>
    <contour>
      <point x="242" y="-195" type="curve"/>
      <point x="315" y="-195" type="line"/>
      <point x="322" y="-153" type="line"/>
      <point x="258" y="-153" type="line" smooth="yes"/>
      <point x="226" y="-153"/>
      <point x="210" y="-134"/>
      <point x="215" y="-103" type="curve" smooth="yes"/>
      <point x="219" y="-75"/>
      <point x="248" y="-36"/>
      <point x="292" y="0" type="curve" smooth="yes"/>
      <point x="305" y="10" type="line"/>
      <point x="268" y="10" type="line"/>
      <point x="211" y="-27"/>
      <point x="172" y="-74"/>
      <point x="166" y="-115" type="curve" smooth="yes"/>
      <point x="158" y="-165"/>
      <point x="187" y="-195"/>
    </contour>
    <component base="idotless"/>
    <component base="dotaccentcomb" xOffset="614"/>
  </outline>
</glyph>
<glyph name="Tbar" format="2">
  <advance width="600"/>
  <unicode hex="0166"/>
  <anchor x="256" y="0" name="bottom"/>
  <anchor x="314" y="365" name="center"/>
  <anchor x="372" y="730" name="top"/>
  <outline>
    <contour>
      <point x="126" y="310" type="line"/>
      <point x="486" y="310" type="line"/>
      <point x="493" y="355" type="line"/>
      <point x="133" y="355" type="line"/>
    </contour>
    <component base="T"/>
  </outline>
</glyph>
<glyph name="Ohorn" format="2">
  <advance width="600"/>
  <unicode hex="01A0"/>
  <anchor x="390" y="730" name="top"/>
  <anchor x="256" y="0" name="bottom"/>
  <anchor x="314" y="365" name="center"/>
  <anchor x="387" y="700" name="horn"/>
  <anchor x="305" y="0" name="ogonek"/>
  <anchor x="92" y="730" name="topleft"/>
  <anchor x="652" y="730" name="topright"/>
  <outline>
    <contour>
      <point x="458" y="665" type="line"/>
      <point x="499" y="665" type="line" smooth="yes"/>
      <point x="550" y="665"/>
      <point x="589" y="699"/>
      <point x="597" y="750" type="curve" smooth="yes"/>
      <point x="607" y="810" type="line"/>
      <point x="567" y="810" type="line"/>
      <point x="557" y="750" type="line" smooth="yes"/>
      <point x="552" y="720"/>
      <point x="532" y="700"/>
      <point x="505" y="700" type="curve" smooth="yes"/>
      <point x="464" y="700" type="line"/>
    </contour>
    <component base="O"/>
  </outline>
</glyph>
<glyph name="doubleprimemod" format="2">
  <advance width="600"/>
  <unicode hex="02BA"/>
  <outline>
    <contour>
      <point x="366" y="409" type="line"/>
      <point x="406" y="409" type="line"/>
      <point x="580" y="720" type="line"/>
      <point x="490" y="720" type="line"/>
    </contour>
    <contour>
      <point x="96" y="409" type="line"/>
      <point x="136" y="409" type="line"/>
      <point x="310" y="720" type="line"/>
      <point x="220" y="720" type="line"/>
    </contour>
  </outline>
</glyph>
<glyph name="tonos" format="2">
  <advance width="600"/>
  <unicode hex="0384"/>
  <anchor x="303" y="550" name="_top"/>
  <outline>
    <contour>
      <point x="292" y="645" type="line"/>
      <point x="345" y="645" type="line"/>
      <point x="479" y="785" type="line"/>
      <point x="420" y="785" type="line"/>
    </contour>
  </outline>
</glyph>
<glyph name="eta" format="2">
  <advance width="600"/>
  <unicode hex="03B7"/>
  <outline>
    <contour>
      <point x="66" y="0" type="line"/>
      <point x="116" y="0" type="line"/>
      <point x="173" y="360" type="line" smooth="yes"/>
      <point x="188" y="457"/>
      <point x="253" y="517"/>
      <point x="341" y="517" type="curve" smooth="yes"/>
      <point x="427" y="517"/>
      <point x="471" y="459"/>
      <point x="455" y="360" type="curve" smooth="yes"/>
      <point x="369" y="-180" type="line"/>
      <point x="419" y="-180" type="line"/>
      <point x="506" y="367" type="line" smooth="yes"/>
      <point x="525" y="485"/>
      <point x="466" y="560"/>
      <point x="358" y="560" type="curve" smooth="yes"/>
      <point x="260" y="560"/>
      <point x="188" y="499"/>
      <point x="173" y="404" type="curve"/>
      <point x="211" y="455" type="line"/>
      <point x="188" y="455" type="line"/>
      <point x="203" y="550" type="line"/>
      <point x="153" y="550" type="line"/>
    </contour>
  </outline>
</glyph>
<glyph name="iota" format="2">
  <advance width="600"/>
  <unicode hex="03B9"/>
  <anchor x="344" y="550" name="top"/>
  <outline>
    <contour>
      <point x="374" y="0" type="curve" smooth="yes"/>
      <point x="496" y="0" type="line"/>
      <point x="503" y="45" type="line"/>
      <point x="381" y="45" type="line" smooth="yes"/>
      <point x="322" y="45"/>
      <point x="296" y="76"/>
      <point x="305" y="135" type="curve" smooth="yes"/>
      <point x="371" y="550" type="line"/>
      <point x="113" y="550" type="line"/>
      <point x="106" y="505" type="line"/>
      <point x="314" y="505" type="line"/>
      <point x="255" y="135" type="line" smooth="yes"/>
      <point x="242" y="48"/>
      <point x="284" y="0"/>
    </contour>
  </outline>
</glyph>
<glyph name="mu" format="2">
  <advance width="600"/>
  <unicode hex="03BC"/>
  <outline>
    <contour>
      <point x="38" y="-180" type="line"/>
      <point x="88" y="-180" type="line"/>
      <point x="117" y="0" type="line"/>
      <point x="129" y="75" type="line"/>
      <point x="147" y="75" type="line"/>
      <point x="129" y="140" type="line"/>
      <point x="115" y="50"/>
      <point x="166" y="-10"/>
      <point x="257" y="-10" type="curve" smooth="yes"/>
      <point x="349" y="-10"/>
      <point x="420" y="50"/>
      <point x="434" y="140" type="curve"/>
      <point x="396" y="75" type="line"/>
      <point x="414" y="75" type="line"/>
      <point x="402" y="0" type="line"/>
      <point x="452" y="0" type="line"/>
      <point x="539" y="550" type="line"/>
      <point x="489" y="550" type="line"/>
      <point x="432" y="190" type="line" smooth="yes"/>
      <point x="416" y="91"/>
      <point x="354" y="33"/>
      <point x="264" y="33" type="curve" smooth="yes"/>
      <point x="174" y="33"/>
      <point x="131" y="91"/>
      <point x="147" y="190" type="curve"/>
      <point x="204" y="550" type="line"/>
      <point x="154" y="550" type="line"/>
    </contour>
  </outline>
</glyph>
<glyph name="De-cy" format="2">
  <advance width="600"/>
  <unicode hex="0414"/>
  <outline>
    <contour>
      <point x="-18" y="-140" type="line"/>
      <point x="27" y="-140" type="line"/>
      <point x="49" y="0" type="line"/>
      <point x="461" y="0" type="line"/>
      <point x="439" y="-140" type="line"/>
      <point x="484" y="-140" type="line"/>
      <point x="513" y="45" type="line"/>
      <point x="441" y="45" type="line"/>
      <point x="550" y="730" type="line"/>
      <point x="233" y="730" type="line"/>
      <point x="151" y="276" type="line" smooth="yes"/>
      <point x="132" y="168"/>
      <point x="79" y="81"/>
      <point x="45" y="45" type="curve"/>
      <point x="11" y="45" type="line"/>
    </contour>
    <contour>
      <point x="98" y="45" type="line" smooth="yes"/>
      <point x="131" y="81"/>
      <point x="181" y="168"/>
      <point x="201" y="276" type="curve" smooth="yes"/>
      <point x="275" y="685" type="line"/>
      <point x="492" y="685" type="line"/>
      <point x="391" y="45" type="line"/>
    </contour>
  </outline>
</glyph>
<glyph name="ve-cy" format="2">
  <advance width="600"/>
  <unicode hex="0432"/>
  <outline>
    <contour>
      <point x="67" y="0" type="line"/>
      <point x="295" y="0" type="line" smooth="yes"/>
      <point x="402" y="0"/>
      <point x="479" y="59"/>
      <point x="494" y="153" type="curve" smooth="yes"/>
      <point x="507" y="233"/>
      <point x="466" y="285"/>
      <point x="393" y="288" type="curve"/>
      <point x="393" y="291" type="line"/>
      <point x="459" y="297"/>
      <point x="507" y="344"/>
      <point x="518" y="412" type="curve" smooth="yes"/>
      <point x="532" y="497"/>
      <point x="476" y="550"/>
      <point x="375" y="550" type="curve" smooth="yes"/>
      <point x="154" y="550" type="line"/>
    </contour>
    <contour>
      <point x="124" y="45" type="line"/>
      <point x="159" y="263" type="line"/>
      <point x="337" y="263" type="line" smooth="yes"/>
      <point x="412" y="263"/>
      <point x="455" y="219"/>
      <point x="444" y="154" type="curve" smooth="yes"/>
      <point x="434" y="89"/>
      <point x="377" y="45"/>
      <point x="302" y="45" type="curve" smooth="yes"/>
    </contour>
    <contour>
      <point x="166" y="308" type="line"/>
      <point x="197" y="505" type="line"/>
      <point x="368" y="505" type="line" smooth="yes"/>
      <point x="437" y="505"/>
      <point x="477" y="465"/>
      <point x="467" y="406" type="curve" smooth="yes"/>
      <point x="458" y="347"/>
      <point x="406" y="308"/>
      <point x="337" y="308" type="curve" smooth="yes"/>
    </contour>
  </outline>
</glyph>
<glyph name="che-cy" format="2">
  <advance width="600"/>
  <unicode hex="0447"/>
  <outline>
    <contour>
      <point x="392" y="0" type="line"/>
      <point x="442" y="0" type="line"/>
      <point x="529" y="550" type="line"/>
      <point x="479" y="550" type="line"/>
      <point x="433" y="256" type="line"/>
      <point x="402" y="250"/>
      <point x="349" y="246"/>
      <point x="302" y="246" type="curve" smooth="yes"/>
      <point x="189" y="246"/>
      <point x="146" y="288"/>
      <point x="162" y="386" type="curve" smooth="yes"/>
      <point x="188" y="550" type="line"/>
      <point x="138" y="550" type="line"/>
      <point x="112" y="386" type="line" smooth="yes"/>
      <point x="92" y="260"/>
      <point x="150" y="200"/>
      <point x="293" y="200" type="curve" smooth="yes"/>
      <point x="342" y="200"/>
      <point x="395" y="204"/>
      <point x="426" y="210" type="curve"/>
    </contour>
  </outline>
</glyph>
<glyph name="Ghestroke-cy" format="2">
  <advance width="600"/>
  <unicode hex="0492"/>
  <anchor x="566" y="0" name="bottomright"/>
  <anchor x="402" y="730" name="top"/>
  <outline>
    <contour>
      <point x="51" y="347" type="line"/>
      <point x="381" y="347" type="line"/>
      <point x="388" y="392" type="line"/>
      <point x="58" y="392" type="line"/>
    </contour>
    <component base="Ge-cy" xOffset="10"/>
  </outline>
</glyph>
<glyph name="kadescender-cy" format="2">
  <advance width="600"/>
  <unicode hex="049B"/>
  <outline>
    <contour>
      <point x="66" y="0" type="line"/>
      <point x="116" y="0" type="line"/>
      <point x="158" y="264" type="line"/>
      <point x="291" y="264" type="line"/>
      <point x="425" y="0" type="line"/>
      <point x="451" y="0" type="line"/>
      <point x="429" y="-140" type="line"/>
      <point x="479" y="-140" type="line"/>
      <point x="508" y="45" type="line"/>
      <point x="462" y="45" type="line"/>
      <point x="339" y="284" type="line"/>
      <point x="567" y="550" type="line"/>
      <point x="507" y="550" type="line"/>
      <point x="297" y="309" type="line"/>
      <point x="165" y="309" type="line"/>
      <point x="203" y="550" type="line"/>
      <point x="153" y="550" type="line"/>
    </contour>
  </outline>
</glyph>
<glyph name="Ustraightstroke-cy" format="2">
  <advance width="600"/>
  <unicode hex="04B0"/>
  <anchor x="256" y="0" name="bottom"/>
  <anchor x="372" y="730" name="top"/>
  <anchor x="92" y="730" name="topleft"/>
  <outline>
    <contour>
      <point x="128" y="235" type="line"/>
      <point x="458" y="235" type="line"/>
      <point x="465" y="280" type="line"/>
      <point x="135" y="280" type="line"/>
    </contour>
    <component base="Y"/>
  </outline>
</glyph>
<glyph name="overline" format="2">
  <advance width="600"/>
  <unicode hex="203E"/>
  <outline>
    <contour>
      <point x="71" y="785" type="line"/>
      <point x="691" y="785" type="line"/>
      <point x="698" y="830" type="line"/>
      <point x="78" y="830" type="line"/>
    </contour>
  </outline>
</glyph>
<glyph name="bracketrightwithquill" format="2">
  <advance width="600"/>
  <unicode hex="2046"/>
  <outline>
    <contour>
      <point x="96" y="-110" type="line"/>
      <point x="321" y="-110" type="line"/>
      <point x="469" y="830" type="line"/>
      <point x="244" y="830" type="line"/>
      <point x="237" y="785" type="line"/>
      <point x="412" y="785" type="line"/>
      <point x="351" y="400" type="line"/>
      <point x="176" y="400" type="line"/>
      <point x="169" y="355" type="line"/>
      <point x="344" y="355" type="line"/>
      <point x="278" y="-65" type="line"/>
      <point x="103" y="-65" type="line"/>
    </contour>
  </outline>
</glyph>
<glyph name="fivesuperior" format="2">
  <advance width="600"/>
  <unicode hex="2075"/>
  <outline>
    <contour>
      <point x="306" y="395" type="curve" smooth="yes"/>
      <point x="390" y="395"/>
      <point x="452" y="450"/>
      <point x="466" y="534" type="curve" smooth="yes"/>
      <point x="479" y="617"/>
      <point x="436" y="672"/>
      <point x="356" y="672" type="curve" smooth="yes"/>
      <point x="309" y="672"/>
      <point x="269" y="648"/>
      <point x="252" y="612" type="curve"/>
      <point x="264" y="612" type="line"/>
      <point x="292" y="790" type="line"/>
      <point x="487" y="790" type="line"/>
      <point x="493" y="830" type="line"/>
      <point x="253" y="830" type="line"/>
      <point x="216" y="593" type="line"/>
      <point x="261" y="593" type="line"/>
      <point x="275" y="617"/>
      <point x="307" y="633"/>
      <point x="343" y="633" type="curve" smooth="yes"/>
      <point x="398" y="633"/>
      <point x="430" y="596"/>
      <point x="421" y="534" type="curve" smooth="yes"/>
      <point x="411" y="474"/>
      <point x="368" y="435"/>
      <point x="312" y="435" type="curve" smooth="yes"/>
      <point x="260" y="435"/>
      <point x="228" y="470"/>
      <point x="232" y="524" type="curve"/>
      <point x="187" y="524" type="line"/>
      <point x="180" y="446"/>
      <point x="227" y="395"/>
    </contour>
  </outline>
</glyph>
<glyph name="sixsuperior" format="2">
  <advance width="600"/>
  <unicode hex="2076"/>
  <outline>
    <contour>
      <point x="320" y="395" type="curve" smooth="yes"/>
      <point x="407" y="395"/>
      <point x="471" y="449"/>
      <point x="484" y="533" type="curve" smooth="yes"/>
      <point x="497" y="614"/>
      <point x="455" y="667"/>
      <point x="376" y="667" type="curve" smooth="yes"/>
      <point x="336" y="667"/>
      <point x="297" y="647"/>
      <point x="279" y="616" type="curve"/>
      <point x="309" y="626" type="line"/>
      <point x="282" y="626" type="line"/>
      <point x="444" y="830" type="line"/>
      <point x="394" y="830" type="line"/>
      <point x="259" y="658" type="line" smooth="yes"/>
      <point x="232" y="623"/>
      <point x="203" y="577"/>
      <point x="196" y="533" type="curve" smooth="yes"/>
      <point x="183" y="449"/>
      <point x="232" y="395"/>
    </contour>
    <contour>
      <point x="325" y="435" type="curve" smooth="yes"/>
      <point x="265" y="435"/>
      <point x="232" y="473"/>
      <point x="241" y="533" type="curve" smooth="yes"/>
      <point x="251" y="593"/>
      <point x="296" y="631"/>
      <point x="356" y="631" type="curve" smooth="yes"/>
      <point x="416" y="631"/>
      <point x="449" y="593"/>
      <point x="439" y="533" type="curve" smooth="yes"/>
      <point x="430" y="473"/>
      <point x="385" y="435"/>
    </contour>
  </outline>
</glyph>
<glyph name="radical" format="2">
  <advance width="600"/>
  <unicode hex="221A"/>
  <outline>
    <contour>
      <point x="248" y="0" type="line"/>
      <point x="307" y="0" type="line"/>
      <point x="649" y="730" type="line"/>
      <point x="597" y="730" type="line"/>
      <point x="320" y="131" type="line" smooth="yes"/>
      <point x="300" y="87"/>
      <point x="293" y="61"/>
      <point x="288" y="46" type="curve"/>
      <point x="232" y="550" type="line"/>
      <point x="73" y="550" type="line"/>
      <point x="66" y="505" type="line"/>
      <point x="189" y="505" type="line"/>
    </contour>
  </outline>
</glyph>
<glyph name="excess" format="2">
  <advance width="600"/>
  <unicode hex="2239"/>
  <outline>
    <contour>
      <point x="11" y="310" type="line"/>
      <point x="361" y="310" type="line"/>
      <point x="368" y="355" type="line"/>
      <point x="18" y="355" type="line"/>
    </contour>
    <contour>
      <point x="494" y="110" type="curve" smooth="yes"/>
      <point x="538" y="110"/>
      <point x="574" y="139"/>
      <point x="581" y="180" type="curve" smooth="yes"/>
      <point x="587" y="221"/>
      <point x="560" y="250"/>
      <point x="517" y="250" type="curve" smooth="yes"/>
      <point x="473" y="250"/>
      <point x="436" y="221"/>
      <point x="430" y="180" type="curve" smooth="yes"/>
      <point x="423" y="139"/>
      <point x="450" y="110"/>
    </contour>
    <contour>
      <point x="542" y="410" type="curve" smooth="yes"/>
      <point x="586" y="410"/>
      <point x="622" y="439"/>
      <point x="628" y="480" type="curve" smooth="yes"/>
      <point x="635" y="521"/>
      <point x="607" y="550"/>
      <point x="564" y="550" type="curve" smooth="yes"/>
      <point x="520" y="550"/>
      <point x="484" y="521"/>
      <point x="477" y="480" type="curve" smooth="yes"/>
      <point x="471" y="439"/>
      <point x="498" y="410"/>
    </contour>
  </outline>
</glyph>
<glyph name="colonequals" format="2">
  <advance width="600"/>
  <unicode hex="2254"/>
  <outline>
    <contour>
      <point x="270" y="405" type="line"/>
      <point x="620" y="405" type="line"/>
      <point x="628" y="455" type="line"/>
      <point x="278" y="455" type="line"/>
    </contour>
    <contour>
      <point x="59" y="110" type="curve" smooth="yes"/>
      <point x="105" y="110"/>
      <point x="139" y="137"/>
      <point x="146" y="180" type="curve" smooth="yes"/>
      <point x="152" y="223"/>
      <point x="128" y="250"/>
      <point x="82" y="250" type="curve" smooth="yes"/>
      <point x="35" y="250"/>
      <point x="1" y="223"/>
      <point x="-5" y="180" type="curve" smooth="yes"/>
      <point x="-12" y="137"/>
      <point x="12" y="110"/>
    </contour>
    <contour>
      <point x="107" y="410" type="curve" smooth="yes"/>
      <point x="154" y="410"/>
      <point x="187" y="437"/>
      <point x="193" y="480" type="curve" smooth="yes"/>
      <point x="200" y="523"/>
      <point x="175" y="550"/>
      <point x="129" y="550" type="curve" smooth="yes"/>
      <point x="82" y="550"/>
      <point x="49" y="523"/>
      <point x="42" y="480" type="curve" smooth="yes"/>
      <point x="36" y="437"/>
      <point x="61" y="410"/>
    </contour>
    <contour>
      <point x="239" y="210" type="line"/>
      <point x="589" y="210" type="line"/>
      <point x="597" y="260" type="line"/>
      <point x="247" y="260" type="line"/>
    </contour>
  </outline>
</glyph>
<glyph name="muchgreater" format="2">
  <advance width="600"/>
  <unicode hex="226B"/>
  <outline>
    <contour>
      <point x="239" y="80" type="line"/>
      <point x="605" y="306" type="line"/>
      <point x="612" y="353" type="line"/>
      <point x="318" y="579" type="line"/>
      <point x="310" y="527" type="line"/>
      <point x="491" y="387" type="line" smooth="yes"/>
      <point x="523" y="362"/>
      <point x="546" y="346"/>
      <point x="563" y="335" type="curve"/>
      <point x="541" y="322"/>
      <point x="505" y="299"/>
      <point x="474" y="279" type="curve" smooth="yes"/>
      <point x="247" y="136" type="line"/>
    </contour>
    <contour>
      <point x="-31" y="80" type="line"/>
      <point x="335" y="306" type="line"/>
      <point x="342" y="353" type="line"/>
      <point x="48" y="579" type="line"/>
      <point x="40" y="527" type="line"/>
      <point x="221" y="387" type="line" smooth="yes"/>
      <point x="253" y="362"/>
      <point x="276" y="346"/>
      <point x="293" y="335" type="curve"/>
      <point x="271" y="322"/>
      <point x="235" y="299"/>
      <point x="204" y="279" type="curve" smooth="yes"/>
      <point x="-22" y="136" type="line"/>
    </contour>
  </outline>
</glyph>
<glyph name="squareoriginaloforequalto" format="2">
  <advance width="600"/>
  <unicode hex="2292"/>
  <outline>
    <contour>
      <point x="39" y="210" type="line"/>
      <point x="539" y="210" type="line"/>
      <point x="612" y="670" type="line"/>
      <point x="112" y="670" type="line"/>
      <point x="105" y="625" type="line"/>
      <point x="555" y="625" type="line"/>
      <point x="496" y="255" type="line"/>
      <point x="46" y="255" type="line"/>
    </contour>
    <contour>
      <point x="6" y="0" type="line"/>
      <point x="506" y="0" type="line"/>
      <point x="513" y="45" type="line"/>
      <point x="13" y="45" type="line"/>
    </contour>
  </outline>
</glyph>
<glyph name="ellipsisvertical" format="2">
  <advance width="600"/>
  <unicode hex="22EE"/>
  <outline>
    <contour>
      <point x="301" y="527" type="curve" smooth="yes"/>
      <point x="336" y="527"/>
      <point x="359" y="550"/>
      <point x="359" y="585" type="curve" smooth="yes"/>
      <point x="359" y="620"/>
      <point x="336" y="643"/>
      <point x="301" y="643" type="curve" smooth="yes"/>
      <point x="265" y="643"/>
      <point x="242" y="620"/>
      <point x="242" y="585" type="curve" smooth="yes"/>
      <point x="242" y="550"/>
      <point x="265" y="527"/>
    </contour>
    <contour>
      <point x="301" y="276" type="curve" smooth="yes"/>
      <point x="336" y="276"/>
      <point x="359" y="299"/>
      <point x="359" y="334" type="curve" smooth="yes"/>
      <point x="359" y="369"/>
      <point x="336" y="392"/>
      <point x="301" y="392" type="curve" smooth="yes"/>
      <point x="265" y="392"/>
      <point x="242" y="369"/>
      <point x="242" y="334" type="curve" smooth="yes"/>
      <point x="242" y="299"/>
      <point x="265" y="276"/>
    </contour>
    <contour>
      <point x="301" y="25" type="curve" smooth="yes"/>
      <point x="336" y="25"/>
      <point x="359" y="48"/>
      <point x="359" y="83" type="curve" smooth="yes"/>
      <point x="359" y="118"/>
      <point x="336" y="141"/>
      <point x="301" y="141" type="curve" smooth="yes"/>
      <point x="265" y="141"/>
      <point x="242" y="118"/>
      <point x="242" y="83" type="curve" smooth="yes"/>
      <point x="242" y="48"/>
      <point x="265" y="25"/>
    </contour>
  </outline>
</glyph>
<glyph name="boxVerticalDoubleAndLeftSingle" format="2">
  <advance width="600"/>
  <unicode hex="2562"/>
  <outline>
    <contour>
      <point x="150" y="-400" type="line"/>
      <point x="250" y="-400" type="line"/>
      <point x="250" y="1120" type="line"/>
      <point x="150" y="1120" type="line"/>
      <point x="150" y="420" type="line"/>
      <point x="-20" y="420" type="line"/>
      <point x="-20" y="320" type="line"/>
      <point x="150" y="320" type="line"/>
    </contour>
    <contour>
      <point x="350" y="-400" type="line"/>
      <point x="450" y="-400" type="line"/>
      <point x="450" y="1120" type="line"/>
      <point x="350" y="1120" type="line"/>
    </contour>
  </outline>
</glyph>
<glyph name="upWhiteSmallTriangle" format="2">
  <advance width="600"/>
  <unicode hex="25B5"/>
  <outline>
    <contour>
      <point x="150" y="210" type="line"/>
      <point x="450" y="210" type="line"/>
      <point x="300" y="520" type="line"/>
    </contour>
    <contour>
      <point x="214" y="250" type="line"/>
      <point x="300" y="428" type="line"/>
      <point x="386" y="250" type="line"/>
    </contour>
  </outline>
</glyph>
<glyph name="rightsshapedbagdelimiter" format="2">
  <advance width="600"/>
  <unicode hex="27C6"/>
  <outline>
    <contour>
      <point x="88" y="-110" type="line"/>
      <point x="152" y="-110" type="line" smooth="yes"/>
      <point x="280" y="-110"/>
      <point x="375" y="-30"/>
      <point x="395" y="92" type="curve" smooth="yes"/>
      <point x="404" y="147"/>
      <point x="400" y="208"/>
      <point x="382" y="268" type="curve" smooth="yes"/>
      <point x="279" y="610" type="line" smooth="yes"/>
      <point x="264" y="659"/>
      <point x="256" y="699"/>
      <point x="261" y="729" type="curve" smooth="yes"/>
      <point x="268" y="769"/>
      <point x="296" y="795"/>
      <point x="332" y="795" type="curve" smooth="yes"/>
      <point x="371" y="795"/>
      <point x="390" y="769"/>
      <point x="386" y="730" type="curve" smooth="yes"/>
      <point x="383" y="703" type="line"/>
      <point x="433" y="703" type="line"/>
      <point x="436" y="730" type="line" smooth="yes"/>
      <point x="443" y="797"/>
      <point x="408" y="840"/>
      <point x="339" y="840" type="curve" smooth="yes"/>
      <point x="273" y="840"/>
      <point x="222" y="797"/>
      <point x="212" y="732" type="curve" smooth="yes"/>
      <point x="207" y="697"/>
      <point x="212" y="654"/>
      <point x="225" y="610" type="curve" smooth="yes"/>
      <point x="329" y="268" type="line" smooth="yes"/>
      <point x="348" y="204"/>
      <point x="354" y="143"/>
      <point x="346" y="94" type="curve" smooth="yes"/>
      <point x="331" y="-2"/>
      <point x="256" y="-65"/>
      <point x="159" y="-65" type="curve" smooth="yes"/>
      <point x="95" y="-65" type="line"/>
    </contour>
  </outline>
</glyph>
<glyph name="N.half" format="2">
  <advance width="400"/>
  <outline>
    <contour>
      <point x="11" y="0" type="line"/>
      <point x="56" y="0" type="line"/>
      <point x="74" y="115" type="line" smooth="yes"/>
      <point x="90" y="218"/>
      <point x="95" y="247"/>
      <point x="92" y="298" type="curve"/>
      <point x="248" y="0" type="line"/>
      <point x="301" y="0" type="line"/>
      <point x="354" y="335" type="line"/>
      <point x="309" y="335" type="line"/>
      <point x="292" y="230" type="line" smooth="yes"/>
      <point x="275" y="127"/>
      <point x="270" y="87"/>
      <point x="273" y="37" type="curve"/>
      <point x="117" y="335" type="line"/>
      <point x="64" y="335" type="line"/>
    </contour>
  </outline>
</glyph>
<glyph name="S.half" format="2">
  <advance width="400"/>
  <outline>
    <contour>
      <point x="149" y="-4" type="curve" smooth="yes"/>
      <point x="158" y="-4" type="line" smooth="yes"/>
      <point x="262" y="-4"/>
      <point x="321" y="50"/>
      <point x="321" y="110" type="curve" smooth="yes"/>
      <point x="321" y="148"/>
      <point x="295" y="181"/>
      <point x="235" y="188" type="curve" smooth="yes"/>
      <point x="148" y="198" type="line" smooth="yes"/>
      <point x="116" y="202"/>
      <point x="96" y="217"/>
      <point x="96" y="239" type="curve" smooth="yes"/>
      <point x="96" y="276"/>
      <point x="138" y="301"/>
      <point x="197" y="301" type="curve" smooth="yes"/>
      <point x="207" y="301" type="line" smooth="yes"/>
      <point x="259" y="301"/>
      <point x="293" y="278"/>
      <point x="293" y="244" type="curve"/>
      <point x="339" y="244" type="line"/>
      <point x="341" y="302"/>
      <point x="293" y="339"/>
      <point x="213" y="339" type="curve" smooth="yes"/>
      <point x="203" y="339" type="line" smooth="yes"/>
      <point x="112" y="339"/>
      <point x="50" y="296"/>
      <point x="50" y="230" type="curve" smooth="yes"/>
      <point x="50" y="197"/>
      <point x="76" y="166"/>
      <point x="133" y="159" type="curve" smooth="yes"/>
      <point x="220" y="149" type="line" smooth="yes"/>
      <point x="254" y="145"/>
      <point x="275" y="129"/>
      <point x="275" y="104" type="curve" smooth="yes"/>
      <point x="275" y="64"/>
      <point x="229" y="34"/>
      <point x="164" y="34" type="curve" smooth="yes"/>
      <point x="155" y="34" type="line" smooth="yes"/>
      <point x="98" y="34"/>
      <point x="64" y="61"/>
      <point x="65" y="103" type="curve"/>
      <point x="19" y="103" type="line"/>
      <point x="14" y="37"/>
      <point x="64" y="-4"/>
    </contour>
  </outline>
</glyph>
<glyph name="asciitilde_at.liga" format="2">
  <advance width="600"/>
  <outline>
    <contour>
      <point x="-78" y="260" type="curve" smooth="yes"/>
      <point x="31" y="260"/>
      <point x="108" y="344"/>
      <point x="126" y="454" type="curve"/>
      <point x="96" y="454" type="line"/>
      <point x="82" y="369"/>
      <point x="17" y="302"/>
      <point x="-71" y="302" type="curve" smooth="yes"/>
      <point x="-208" y="302"/>
      <point x="-197" y="445"/>
      <point x="-341" y="445" type="curve" smooth="yes"/>
      <point x="-426" y="445"/>
      <point x="-492" y="390"/>
      <point x="-505" y="310" type="curve" smooth="yes"/>
      <point x="-513" y="260" type="line"/>
      <point x="-468" y="260" type="line"/>
      <point x="-460" y="310" type="line" smooth="yes"/>
      <point x="-451" y="365"/>
      <point x="-405" y="403"/>
      <point x="-347" y="403" type="curve" smooth="yes"/>
      <point x="-234" y="403"/>
      <point x="-240" y="260"/>
    </contour>
    <component base="at"/>
  </outline>
</glyph>
<glyph name="bar_bar_bar_greater.liga" format="2">
  <advance width="600"/>
  <outline>
    <contour>
      <point x="-942" y="-85" type="line"/>
      <point x="-892" y="-85" type="line"/>
      <point x="-760" y="750" type="line"/>
      <point x="-810" y="750" type="line"/>
    </contour>
    <contour>
      <point x="-1372" y="-85" type="line"/>
      <point x="-1322" y="-85" type="line"/>
      <point x="-1190" y="750" type="line"/>
      <point x="-1240" y="750" type="line"/>
    </contour>
    <component base="bar_greater.liga" xOffset="-150"/>
  </outline>
</glyph>
<glyph name="brevecomb_acutecomb.case" format="2">
  <anchor x="-228" y="730" name="_top"/>
  <anchor x="-183" y="1020" name="top"/>
  <outline>
    <contour>
      <point x="-245" y="895" type="line"/>
      <point x="-193" y="895" type="line"/>
      <point x="-63" y="1020" type="line"/>
      <point x="-125" y="1020" type="line"/>
    </contour>
    <contour>
      <point x="-240" y="780" type="curve" smooth="yes"/>
      <point x="-200" y="780" type="line" smooth="yes"/>
      <point x="-122" y="780"/>
      <point x="-63" y="830"/>
      <point x="-51" y="905" type="curve"/>
      <point x="-96" y="905" type="line"/>
      <point x="-104" y="854"/>
      <point x="-143" y="820"/>
      <point x="-194" y="820" type="curve" smooth="yes"/>
      <point x="-234" y="820" type="line" smooth="yes"/>
      <point x="-285" y="820"/>
      <point x="-314" y="854"/>
      <point x="-306" y="905" type="curve"/>
      <point x="-351" y="905" type="line"/>
      <point x="-363" y="830"/>
      <point x="-318" y="780"/>
    </contour>
  </outline>
</glyph>
<glyph name="caroncomb.alt" format="2">
  <anchor x="75" y="730" name="_topright"/>
  <outline>
    <contour>
      <point x="-92" y="550" type="line"/>
      <point x="-52" y="550" type="line"/>
      <point x="-3" y="730" type="line"/>
      <point x="-53" y="730" type="line"/>
    </contour>
  </outline>
</glyph>
<glyph name="caroncomb.case" format="2">
  <anchor x="-227" y="730" name="_top"/>
  <anchor x="-193" y="950" name="top"/>
  <outline>
    <contour>
      <point x="-245" y="810" type="line"/>
      <point x="-185" y="810" type="line"/>
      <point x="-43" y="950" type="line"/>
      <point x="-93" y="950" type="line"/>
      <point x="-210" y="841" type="line"/>
      <point x="-294" y="950" type="line"/>
      <point x="-343" y="950" type="line"/>
    </contour>
  </outline>
</glyph>
<glyph name="circumflexcomb_tildecomb" format="2">
  <anchor x="-256" y="550" name="_top"/>
  <anchor x="-198" y="925" name="top"/>
  <outline>
    <contour>
      <point x="-145" y="815" type="curve" smooth="yes"/>
      <point x="-96" y="815"/>
      <point x="-65" y="843"/>
      <point x="-57" y="895" type="curve" smooth="yes"/>
      <point x="-53" y="920" type="line"/>
      <point x="-93" y="920" type="line"/>
      <point x="-97" y="895" type="line" smooth="yes"/>
      <point x="-101" y="869"/>
      <point x="-116" y="855"/>
      <point x="-139" y="855" type="curve" smooth="yes"/>
      <point x="-192" y="855"/>
      <point x="-190" y="925"/>
      <point x="-262" y="925" type="curve" smooth="yes"/>
      <point x="-314" y="925"/>
      <point x="-347" y="897"/>
      <point x="-355" y="845" type="curve" smooth="yes"/>
      <point x="-359" y="820" type="line"/>
      <point x="-319" y="820" type="line"/>
      <point x="-315" y="845" type="line" smooth="yes"/>
      <point x="-311" y="872"/>
      <point x="-296" y="885"/>
      <point x="-269" y="885" type="curve" smooth="yes"/>
      <point x="-215" y="885"/>
      <point x="-216" y="815"/>
    </contour>
    <contour>
      <point x="-392" y="645" type="line"/>
      <point x="-338" y="645" type="line"/>
      <point x="-222" y="754" type="line"/>
      <point x="-138" y="645" type="line"/>
      <point x="-92" y="645" type="line"/>
      <point x="-190" y="785" type="line"/>
      <point x="-250" y="785" type="line"/>
    </contour>
  </outline>
</glyph>
<glyph name="equal_equal_equal.liga.old" format="2">
  <advance width="600"/>
  <outline>
    <contour>
      <point x="-1083" y="517" type="line"/>
      <point x="557" y="517" type="line"/>
      <point x="565" y="562" type="line"/>
      <point x="-1075" y="562" type="line"/>
    </contour>
    <contour>
      <point x="-1153" y="75" type="line"/>
      <point x="487" y="75" type="line"/>
      <point x="495" y="120" type="line"/>
      <point x="-1145" y="120" type="line"/>
    </contour>
    <contour>
      <point x="-1118" y="296" type="line"/>
      <point x="522" y="296" type="line"/>
      <point x="530" y="341" type="line"/>
      <point x="-1110" y="341" type="line"/>
    </contour>
  </outline>
</glyph>
<glyph name="equal_greater.liga" format="2">
  <advance width="600"/>
  <outline>
    <contour>
      <point x="170" y="35" type="line"/>
      <point x="232" y="35" type="line"/>
      <point x="523" y="331" type="line"/>
      <point x="326" y="625" type="line"/>
      <point x="269" y="625" type="line"/>
      <point x="375" y="466" type="line"/>
      <point x="-475" y="466" type="line"/>
      <point x="-482" y="421" type="line"/>
      <point x="405" y="421" type="line"/>
      <point x="465" y="333" type="line"/>
      <point x="373" y="240" type="line"/>
      <point x="-511" y="240" type="line"/>
      <point x="-518" y="195" type="line"/>
      <point x="328" y="195" type="line"/>
    </contour>
  </outline>
</glyph>
<glyph name="hyphen_greater_greater.liga" format="2">
  <advance width="600"/>
  <outline>
    <contour>
      <point x="-110" y="35" type="line"/>
      <point x="-48" y="35" type="line"/>
      <point x="243" y="331" type="line"/>
      <point x="46" y="625" type="line"/>
      <point x="-11" y="625" type="line"/>
      <point x="171" y="353" type="line"/>
      <point x="-1093" y="353" type="line"/>
      <point x="-1100" y="308" type="line"/>
      <point x="160" y="308" type="line"/>
    </contour>
    <contour>
      <point x="170" y="35" type="line"/>
      <point x="232" y="35" type="line"/>
      <point x="523" y="331" type="line"/>
      <point x="326" y="625" type="line"/>
      <point x="269" y="625" type="line"/>
      <point x="463" y="335" type="line"/>
    </contour>
  </outline>
</glyph>
<glyph name="less_asciitilde.liga" format="2">
  <advance width="600"/>
  <outline>
    <contour>
      <point x="-309" y="35" type="line"/>
      <point x="-253" y="35" type="line"/>
      <point x="-411" y="268" type="line"/>
      <point x="-308" y="275"/>
      <point x="-295" y="383"/>
      <point x="-208" y="383" type="curve" smooth="yes"/>
      <point x="-118" y="383"/>
      <point x="-136" y="240"/>
      <point x="-21" y="240" type="curve" smooth="yes"/>
      <point x="94" y="240"/>
      <point x="127" y="383"/>
      <point x="212" y="383" type="curve" smooth="yes"/>
      <point x="297" y="383"/>
      <point x="279" y="240"/>
      <point x="399" y="240" type="curve" smooth="yes"/>
      <point x="466" y="240"/>
      <point x="515" y="283"/>
      <point x="526" y="350" type="curve" smooth="yes"/>
      <point x="534" y="400" type="line"/>
      <point x="484" y="400" type="line"/>
      <point x="476" y="350" type="line" smooth="yes"/>
      <point x="469" y="308"/>
      <point x="447" y="282"/>
      <point x="406" y="282" type="curve" smooth="yes"/>
      <point x="317" y="282"/>
      <point x="333" y="425"/>
      <point x="218" y="425" type="curve" smooth="yes"/>
      <point x="103" y="425"/>
      <point x="71" y="282"/>
      <point x="-14" y="282" type="curve" smooth="yes"/>
      <point x="-99" y="282"/>
      <point x="-82" y="425"/>
      <point x="-202" y="425" type="curve" smooth="yes"/>
      <point x="-312" y="425"/>
      <point x="-342" y="308"/>
      <point x="-411" y="308" type="curve" smooth="yes"/>
      <point x="-437" y="308" type="line"/>
      <point x="-451" y="327" type="line"/>
      <point x="-153" y="625" type="line"/>
      <point x="-215" y="625" type="line"/>
      <point x="-507" y="330" type="line"/>
    </contour>
  </outline>
</glyph>
<glyph name="less_slash_greater.liga" format="2">
  <advance width="600"/>
  <outline>
    <contour>
      <point x="-568" y="-110" type="line"/>
      <point x="-510" y="-110" type="line"/>
      <point x="-115" y="628" type="line"/>
      <point x="390" y="332" type="line"/>
      <point x="-13" y="136" type="line"/>
      <point x="-21" y="80" type="line"/>
      <point x="435" y="307" type="line"/>
      <point x="442" y="353" type="line"/>
      <point x="-92" y="668" type="line"/>
      <point x="-6" y="830" type="line"/>
      <point x="-64" y="830" type="line"/>
      <point x="-486" y="43" type="line"/>
      <point x="-974" y="328" type="line"/>
      <point x="-571" y="524" type="line"/>
      <point x="-562" y="580" type="line"/>
      <point x="-1018" y="353" type="line"/>
      <point x="-1025" y="307" type="line"/>
      <point x="-508" y="3" type="line"/>
    </contour>
  </outline>
</glyph>
<glyph name="numbersign_braceleft.liga" format="2">
  <advance width="600"/>
  <outline>
    <contour>
      <point x="-552" y="0" type="line"/>
      <point x="-507" y="0" type="line"/>
      <point x="-427" y="230" type="line"/>
      <point x="-241" y="230" type="line"/>
      <point x="-321" y="0" type="line"/>
      <point x="-276" y="0" type="line"/>
      <point x="-196" y="230" type="line"/>
      <point x="322" y="230" type="line"/>
      <point x="329" y="270" type="line"/>
      <point x="-181" y="270" type="line"/>
      <point x="-115" y="460" type="line"/>
      <point x="359" y="460" type="line"/>
      <point x="365" y="500" type="line"/>
      <point x="-101" y="500" type="line"/>
      <point x="-20" y="730" type="line"/>
      <point x="-65" y="730" type="line"/>
      <point x="-146" y="500" type="line"/>
      <point x="-332" y="500" type="line"/>
      <point x="-251" y="730" type="line"/>
      <point x="-296" y="730" type="line"/>
      <point x="-377" y="500" type="line"/>
      <point x="-495" y="500" type="line"/>
      <point x="-501" y="460" type="line"/>
      <point x="-391" y="460" type="line"/>
      <point x="-457" y="270" type="line"/>
      <point x="-566" y="270" type="line"/>
      <point x="-573" y="230" type="line"/>
      <point x="-472" y="230" type="line"/>
    </contour>
    <contour>
      <point x="-412" y="270" type="line"/>
      <point x="-346" y="460" type="line"/>
      <point x="-160" y="460" type="line"/>
      <point x="-226" y="270" type="line"/>
    </contour>
    <contour>
      <point x="394" y="-110" type="curve" smooth="yes"/>
      <point x="444" y="-110" type="line"/>
      <point x="451" y="-65" type="line"/>
      <point x="401" y="-65" type="line" smooth="yes"/>
      <point x="339" y="-65"/>
      <point x="304" y="-25"/>
      <point x="317" y="40" type="curve" smooth="yes"/>
      <point x="359" y="243" type="line" smooth="yes"/>
      <point x="375" y="318"/>
      <point x="343" y="363"/>
      <point x="285" y="366" type="curve"/>
      <point x="285" y="369" type="line"/>
      <point x="345" y="372"/>
      <point x="391" y="415"/>
      <point x="398" y="488" type="curve" smooth="yes"/>
      <point x="419" y="680" type="line" smooth="yes"/>
      <point x="426" y="745"/>
      <point x="473" y="785"/>
      <point x="535" y="785" type="curve" smooth="yes"/>
      <point x="585" y="785" type="line"/>
      <point x="592" y="830" type="line"/>
      <point x="542" y="830" type="line" smooth="yes"/>
      <point x="446" y="830"/>
      <point x="379" y="775"/>
      <point x="369" y="680" type="curve" smooth="yes"/>
      <point x="348" y="488" type="line" smooth="yes"/>
      <point x="341" y="414"/>
      <point x="314" y="388"/>
      <point x="232" y="388" type="curve" smooth="yes"/>
      <point x="152" y="388" type="line"/>
      <point x="145" y="342" type="line"/>
      <point x="225" y="342" type="line" smooth="yes"/>
      <point x="311" y="342"/>
      <point x="324" y="314"/>
      <point x="309" y="243" type="curve" smooth="yes"/>
      <point x="267" y="40" type="line" smooth="yes"/>
      <point x="247" y="-55"/>
      <point x="298" y="-110"/>
    </contour>
  </outline>
</glyph>
<glyph name="ringcomb.case" format="2">
  <anchor x="-227" y="730" name="_top"/>
  <anchor x="-188" y="980" name="top"/>
  <outline>
    <contour>
      <point x="-218" y="780" type="curve" smooth="yes"/>
      <point x="-156" y="780"/>
      <point x="-108" y="820"/>
      <point x="-99" y="880" type="curve" smooth="yes"/>
      <point x="-89" y="940"/>
      <point x="-125" y="980"/>
      <point x="-187" y="980" type="curve" smooth="yes"/>
      <point x="-250" y="980"/>
      <point x="-299" y="940"/>
      <point x="-309" y="880" type="curve" smooth="yes"/>
      <point x="-318" y="820"/>
      <point x="-281" y="780"/>
    </contour>
    <contour>
      <point x="-214" y="815" type="curve" smooth="yes"/>
      <point x="-253" y="815"/>
      <point x="-275" y="841"/>
      <point x="-269" y="880" type="curve" smooth="yes"/>
      <point x="-262" y="919"/>
      <point x="-232" y="945"/>
      <point x="-193" y="945" type="curve" smooth="yes"/>
      <point x="-154" y="945"/>
      <point x="-132" y="919"/>
      <point x="-139" y="880" type="curve" smooth="yes"/>
      <point x="-145" y="841"/>
      <point x="-175" y="815"/>
    </contour>
  </outline>
</glyph>
